PathFileType	4	(X/Y/Z)	C:\Users\°ÂÌØÂü\Desktop\20201223\Trimmed_Trimmed_Trimmed_Trimmed_bx_n_0_501.trc
DataRate	CameraRate	NumFrames	NumMarkers	Units	OrigDataRate	OrigDataStartFrame	OrigNumFrames
50.00	50.00	       7	43	mm	50.00	502	       802
Frame#	Time	Top.Head			R.Acromium			L.Acromium			Sternum			R.ASIS			L.ASIS			V.Sacral			R.Thigh.Upper			R.Thigh.Front			R.Thigh.Rear			R.Knee.Lat			R.Knee.Med			R.Shank.Upper			R.Shank.Front			R.Shank.Rear			R.Ankle.Lat			R.Midfoot.Lat			R.Toe.Lat			R.Toe.Tip			R.Toe.Med			R.Ankle.Med			R.Midfoot.Sup			R.Heel			L.Thigh.Upper			L.Thigh.Front			L.Thigh.Rear			L.Knee.Lat			L.Knee.Med			L.Shank.Upper			L.Shank.Front			L.Shank.Rear			L.Ankle.Lat			L.Midfoot.Lat			L.Toe.Lat			L.Toe.Tip			L.Toe.Med			L.Ankle.Med			L.Midfoot.Sup			L.Heel			origin1 front left			origin2 front right			origin 3 back right			origin 4 back leftt			
		X1	Y1	Z1	X2	Y2	Z2	X3	Y3	Z3	X4	Y4	Z4	X5	Y5	Z5	X6	Y6	Z6	X7	Y7	Z7	X8	Y8	Z8	X9	Y9	Z9	X10	Y10	Z10	X11	Y11	Z11	X12	Y12	Z12	X13	Y13	Z13	X14	Y14	Z14	X15	Y15	Z15	X16	Y16	Z16	X17	Y17	Z17	X18	Y18	Z18	X19	Y19	Z19	X20	Y20	Z20	X21	Y21	Z21	X22	Y22	Z22	X23	Y23	Z23	X24	Y24	Z24	X25	Y25	Z25	X26	Y26	Z26	X27	Y27	Z27	X28	Y28	Z28	X29	Y29	Z29	X30	Y30	Z30	X31	Y31	Z31	X32	Y32	Z32	X33	Y33	Z33	X34	Y34	Z34	X35	Y35	Z35	X36	Y36	Z36	X37	Y37	Z37	X38	Y38	Z38	X39	Y39	Z39	X40	Y40	Z40	X41	Y41	Z41	X42	Y42	Z42	X43	Y43	Z43	

502	10.020	-563.34784	274.45319	1811.46130	-548.97406	88.45858	1516.10303	-563.78406	450.93668	1509.02856	-514.87634	269.16949	1320.95776	-607.72644	143.29622	1034.38586	-585.70068	363.25720	1029.85754	-796.17474	262.38229	1074.96899	-692.71332	90.00836	836.48163	-600.45416	137.66441	804.17938	-698.94714	101.90890	719.02783	-704.03345	120.18541	599.07159	-676.06921	225.34564	556.28845	-725.80408	118.81949	535.37024	-646.25269	167.97943	527.05365	-729.64850	110.40237	483.88568	-693.78033	137.90581	211.75085	-616.78436	77.96852	167.13234	-571.25775	56.43604	164.15446	-495.82858	97.33886	161.42119	-536.79626	148.57939	163.86917	-644.68756	214.22095	221.97910	-599.11890	187.79012	171.93051	-726.40955	204.30945	168.35619	-678.01019	450.30536	858.67059	-592.66492	397.83414	820.48920	-690.69110	440.37256	740.28003	-695.91003	421.11853	602.63702	-680.83130	311.79196	566.30701	-707.88739	424.81293	555.63965	-647.74042	369.41211	535.90521	-753.44330	428.30606	487.45636	-679.52966	422.88278	214.77171	-579.24286	465.60809	164.66972	-541.09290	475.69632	158.93942	-485.67648	420.19455	167.84125	-526.20410	383.44366	178.42778	-650.15778	331.14249	210.53438	-597.04944	347.13739	172.80215	-735.74835	355.69678	161.68204	-444.09235	448.64758	146.52139	-450.45419	75.00610	143.36388	-806.30011	82.26067	141.37119	-799.69855	456.97299	145.24359	
503	10.040	-568.90710	274.35028	1813.52563	-551.75122	88.80634	1517.85669	-567.21619	451.35019	1510.86780	-515.21686	269.80243	1323.33447	-604.46533	143.62901	1034.95349	-582.72351	363.85852	1030.60339	-793.39893	262.30649	1074.56628	-689.47186	90.16539	836.63416	-597.43799	137.95366	804.15033	-696.21747	102.06943	719.23328	-702.04108	120.36572	599.23584	-674.31647	225.54381	556.35236	-724.11243	119.02212	535.62384	-644.58167	168.28723	527.09485	-728.19495	110.57342	484.15356	-693.63690	138.14351	211.76636	-616.66162	78.06907	167.25883	-571.18134	56.54662	164.24565	-495.71442	97.37846	161.36765	-536.74139	148.63676	163.74849	-644.55286	214.43959	221.84178	-599.01477	187.83582	171.76967	-726.38770	204.37637	168.38116	-675.40387	450.38013	858.77594	-590.08575	398.15253	820.48218	-688.58057	440.32755	740.43750	-694.38239	421.11383	602.81012	-679.16815	311.84195	566.44800	-706.51489	424.77615	555.79370	-646.35339	369.52518	535.85303	-752.32623	428.14514	487.79443	-679.43646	422.76364	214.75978	-579.24115	465.66074	164.68930	-541.10010	475.70023	158.92744	-485.61517	420.21121	167.81073	-526.15741	383.40933	178.38557	-650.13605	331.09454	210.37958	-597.03705	347.13391	172.72208	-735.72211	355.69128	161.71872	-444.10693	448.64859	146.52492	-450.46915	74.99587	143.35744	-806.29797	82.25971	141.36122	-799.65796	456.99295	145.24297	
504	10.060	-574.38281	274.16525	1815.46777	-554.48151	89.09708	1519.50134	-570.59723	451.69797	1512.60815	-515.53162	270.38510	1325.63135	-601.22125	143.93419	1035.47400	-579.71307	364.43927	1031.34521	-790.60718	262.20596	1074.16431	-686.25995	90.29447	836.76385	-594.44806	138.20433	804.10144	-693.52277	102.20990	719.42792	-700.08020	120.53018	599.39594	-672.59460	225.73007	556.40924	-722.45007	119.20992	535.87396	-642.93921	168.57094	527.13171	-726.77045	110.73852	484.40460	-693.50116	138.38133	211.79700	-616.54553	78.16949	167.36681	-571.10181	56.65224	164.33026	-495.60538	97.41116	161.31149	-536.69659	148.68610	163.64247	-644.43359	214.66039	221.70865	-598.91089	187.87398	171.62920	-726.36243	204.44385	168.40764	-672.77545	450.45013	858.88007	-587.50549	398.44379	820.46271	-686.45984	440.27628	740.58606	-692.84680	421.09796	602.98431	-677.50232	311.87863	566.57880	-705.14624	424.71777	555.94269	-644.95966	369.62363	535.80945	-751.20941	427.98688	488.13641	-679.34918	422.64374	214.75093	-579.24249	465.71271	164.70485	-541.10858	475.70169	158.91971	-485.54910	420.23477	167.78833	-526.11627	383.37512	178.34677	-650.12604	331.02930	210.21841	-597.03320	347.11752	172.62489	-735.69519	355.68524	161.75002	-444.11597	448.64810	146.52678	-450.48074	74.98663	143.35645	-806.29852	82.25465	141.35461	-799.61365	457.00934	145.23448	
505	10.080	-579.76099	273.90707	1817.28369	-557.16357	89.32970	1521.03540	-573.90607	451.98077	1514.24268	-515.82532	270.91165	1327.84509	-598.01215	144.20464	1035.95276	-576.69354	364.97729	1032.06714	-787.80957	262.09497	1073.76428	-683.09192	90.39677	836.87140	-591.49530	138.41472	804.03632	-690.87518	102.33653	719.61029	-698.15533	120.68066	599.55127	-670.90381	225.90689	556.46350	-720.81879	119.38404	536.11804	-641.32959	168.82539	527.15619	-725.37665	110.90049	484.64240	-693.37000	138.61050	211.84547	-616.44171	78.26759	167.45476	-571.02191	56.75142	164.40749	-495.50525	97.43610	161.25374	-536.66058	148.73083	163.55058	-644.32739	214.88377	221.57744	-598.81165	187.91130	171.50970	-726.33325	204.51099	168.43578	-670.12555	450.51263	858.98315	-584.92365	398.70538	820.43286	-684.32684	440.21655	740.72693	-691.29822	421.07407	603.15753	-675.83398	311.90170	566.69446	-703.77606	424.64398	556.08801	-643.55792	369.70483	535.77661	-750.08875	427.83920	488.48181	-679.26532	422.52676	214.74489	-579.24561	465.76160	164.71706	-541.11725	475.70169	158.91602	-485.47855	420.26468	167.77631	-526.08154	383.34265	178.31116	-650.11713	330.94659	210.06197	-597.03522	347.08713	172.51172	-735.66711	355.67477	161.77496	-444.11624	448.64465	146.52689	-450.48788	74.97974	143.36139	-806.29987	82.24663	141.35155	-799.57104	457.01791	145.21588	
506	10.100	-585.02454	273.58673	1818.97192	-559.79871	89.50375	1522.45935	-577.12433	452.20151	1515.76636	-516.10266	271.37680	1329.97400	-594.85333	144.43463	1036.39392	-573.68823	365.45187	1032.75183	-785.01202	261.98666	1073.36682	-679.97980	90.47424	836.95819	-588.58881	138.58458	803.95825	-688.28375	102.45516	719.77924	-696.26996	120.81939	599.70105	-669.24237	226.07594	556.52002	-719.21954	119.54646	536.35248	-639.75592	169.04761	527.16132	-724.01398	111.06215	484.87045	-693.24042	138.82193	211.91266	-616.35461	78.36105	167.52298	-570.94470	56.84270	164.47655	-495.41626	97.45275	161.19572	-536.63123	148.77394	163.47101	-644.22864	215.10820	221.44690	-598.72144	187.95354	171.40994	-726.29968	204.57684	168.46558	-667.45490	450.56342	859.08374	-582.33899	398.93350	820.39362	-682.17841	440.14551	740.86096	-689.73138	421.04446	603.32684	-674.16382	311.91016	566.79138	-702.39868	424.55988	556.23114	-642.14752	369.76651	535.75366	-748.95959	427.70764	488.82922	-679.18268	422.41614	214.74091	-579.24957	465.80530	164.72675	-541.12494	475.70145	158.91579	-485.40445	420.29971	167.77513	-526.05280	383.31329	178.27786	-650.09863	330.84628	209.92072	-597.04102	347.04266	172.38385	-735.63751	355.65579	161.79306	-444.10532	448.63657	146.52576	-450.49011	74.97603	143.37178	-806.30017	82.23712	141.35185	-799.53680	457.01395	145.18552	
507	10.120	-590.15491	273.21603	1820.53357	-562.39044	89.61938	1523.77576	-580.23767	452.36411	1517.17651	-516.36835	271.77591	1332.01697	-591.75629	144.62022	1036.80103	-570.71686	365.84729	1033.38318	-782.21722	261.89160	1072.97131	-676.93335	90.52945	837.02661	-585.73566	138.71498	803.86981	-685.75452	102.57037	719.93408	-694.42639	120.94868	599.84479	-667.60773	226.23775	556.58331	-717.65332	119.69960	536.57367	-638.21991	169.23682	527.14240	-722.68225	111.22569	485.09155	-693.11023	139.00694	211.99782	-616.28717	78.44783	167.57309	-570.87311	56.92469	164.53658	-495.33905	97.46090	161.13904	-536.60577	148.81718	163.40137	-644.12933	215.32968	221.31747	-598.64362	188.00485	171.32719	-726.26160	204.64058	168.49673	-664.76483	450.59735	859.17908	-579.75061	399.12378	820.34534	-680.01172	440.06042	740.98871	-688.14240	421.01083	603.48956	-672.49402	311.90240	566.86804	-701.00916	424.46915	556.37286	-640.72913	369.80688	535.73676	-747.81744	427.59525	489.17630	-679.09930	422.31485	214.73836	-579.25342	465.84219	164.73463	-541.13086	475.70209	158.91827	-485.32846	420.33813	167.78329	-526.02832	383.28787	178.24553	-650.06104	330.72873	209.80302	-597.04889	346.98502	172.24312	-735.60626	355.62497	161.80441	-444.08179	448.62213	146.52444	-450.48761	74.97566	143.38623	-806.29816	82.22768	141.35500	-799.51794	456.99329	145.14285	
508	10.140	-595.13269	272.80618	1821.97168	-564.94360	89.67751	1524.98816	-583.23657	452.47296	1518.47168	-516.62640	272.10507	1333.97327	-588.72803	144.75928	1037.17651	-567.79370	366.15466	1033.95007	-779.42664	261.81665	1072.57690	-673.95953	90.56522	837.08008	-582.94116	138.80797	803.77289	-683.29108	102.68494	720.07495	-692.62579	121.07056	599.98242	-665.99677	226.39142	556.65668	-716.12042	119.84598	536.77863	-636.72205	169.39424	527.09741	-721.38055	111.39216	485.30746	-692.97833	139.15796	212.09915	-616.24030	78.52642	167.60757	-570.81018	56.99627	164.58672	-495.27301	97.46063	161.08524	-536.58179	148.86079	163.33922	-644.02032	215.54201	221.19144	-598.58020	188.06773	171.25786	-726.21948	204.70163	168.52869	-662.05823	450.60959	859.26538	-577.15881	399.27203	820.28790	-677.82483	439.95947	741.11060	-686.52924	420.97467	603.64343	-670.82928	311.87650	566.92535	-699.60400	424.37418	556.51349	-639.30469	369.82489	535.72064	-746.65894	427.50238	489.51971	-679.01385	422.22549	214.73723	-579.25671	465.87137	164.74127	-541.13440	475.70465	158.92252	-485.25275	420.37799	167.79747	-526.00555	383.26669	178.21246	-649.99792	330.59537	209.71410	-597.05762	346.91623	172.09222	-735.57343	355.58026	161.80995	-444.04562	448.60004	146.52435	-450.48117	74.97816	143.40277	-806.29321	82.21976	141.36014	-799.51978	456.95361	145.08890	
